# xmcd
#
# Track frame offsets:
#	150
#	16959
#	35430
#	50445
#	70483
#	92858
#	107344
#	121260
#	136506
#	153531
#	170195
#	189032
#	202089
#	219102
#	224813
#	246767
#	261321
#	278912
#
# Disc length: 4001 seconds
#
# Revision: 0
# Processed by: cddbd v1.5.1PL0 Copyright (c) Steve Scherf et al.
# Submitted via: dBpowerAMP V4.0
#
DISCID=090f9f12
DTITLE=Marciano - Ao Vivo
DYEAR=2003
DGENRE=Sertanejo
TTITLE0=Tinha Que Acontecer (Cigana)
TTITLE1=Pout-Pourri - Seu Amor Ainda é Tudo, Ainda Ontem Chorei De Saudade
TTITLE2=Suave a Noite (Tenders Is The Night)
TTITLE3=Se Você Quiser Voltar
TTITLE4=Pout-Pourri - Um Brinde e Depois Não Sei (Champanhe), Aline 
TTITLE5=Amor a La Mexicana (Namorada Mexicana)
TTITLE6=Dia Sim Dia Não
TTITLE7=Da boca Pra Fora
TTITLE8=Amor Clandestino
TTITLE9=Telefone (Alô)
TTITLE10=É Saudade
TTITLE11=Gosto Amargo
TTITLE12=Qualquer Jeito (It Should Have Begin Eady)
TTITLE13=Outra Vez
TTITLE14=Pout-Pourri - Custe o Que Custar, Falando Sério
TTITLE15=Nossa Senhora Aparecida
TTITLE16=Quem Sabe Numa Dessa
TTITLE17=Bateu Na Veia
EXTD=
EXTT0=
EXTT1=
EXTT2=
EXTT3=
EXTT4=
EXTT5=
EXTT6=
EXTT7=
EXTT8=
EXTT9=
EXTT10=
EXTT11=
EXTT12=
EXTT13=
EXTT14=
EXTT15=
EXTT16=
EXTT17=
PLAYORDER=
